<?xml version="1.0" encoding="utf-8"?>
<!-- Generator: Adobe Illustrator 16.0.4, SVG Export Plug-In . SVG Version: 6.00 Build 0)  -->
<!DOCTYPE svg PUBLIC "-//W3C//DTD SVG 1.1//EN" "http://www.w3.org/Graphics/SVG/1.1/DTD/svg11.dtd">
<svg version="1.1" id="Layer_1" xmlns="http://www.w3.org/2000/svg" xmlns:xlink="http://www.w3.org/1999/xlink" x="0px" y="0px"
	 width="24.625px" height="52.25px" viewBox="0 0 24.625 52.25" enable-background="new 0 0 24.625 52.25" xml:space="preserve">
<path fill-rule="evenodd" clip-rule="evenodd" fill="#010202" d="M-40.114,27.011l21.464,25.309l0.413-1.354l-20.505-24.375
	L-17.56,1.657l-1.426-0.351l-21.592,25.415l0.411,0.351L-40.114,27.011"/>
<path fill="#FFFFFF" d="M3.295,27.77c-0.562-0.586-0.562-1.537,0-2.122L23.856,4.188c-0.069-0.197-0.172-0.383-0.324-0.541
	c-0.561-0.586-1.471-0.586-2.032,0l-21.079,22c-0.562,0.585-0.562,1.536,0,2.122l21.079,22c0.281,0.293,0.649,0.438,1.017,0.438
	c0.368,0,0.735-0.146,1.016-0.438c0.152-0.158,0.255-0.344,0.324-0.541L3.295,27.77z"/>
</svg>
